<?xml version="1.0" standalone="no"?>
<!DOCTYPE svg PUBLIC "-//W3C//DTD SVG 1.1//EN" "http://www.w3.org/Graphics/SVG/1.1/DTD/svg11.dtd" >
<svg xmlns="http://www.w3.org/2000/svg">
<metadata></metadata>
<defs>
<font id="helvetica_55_romanbold" horiz-adv-x="1139" >
<font-face units-per-em="2048" ascent="1638" descent="-410" />
<missing-glyph horiz-adv-x="569" />
<glyph horiz-adv-x="2048" />
<glyph horiz-adv-x="2048" />
<glyph unicode="&#xd;" horiz-adv-x="0" />
<glyph unicode=" "  horiz-adv-x="569" />
<glyph unicode="&#x09;" horiz-adv-x="569" />
<glyph unicode="&#xa0;" horiz-adv-x="569" />
<glyph unicode="!" horiz-adv-x="569" d="M125 0v315h321v-315h-321zM133 1069v393h303v-393l-80 -631h-145z" />
<glyph unicode="&#x22;" horiz-adv-x="948" d="M174 805v657h219v-657h-219zM555 805v657h219v-657h-219z" />
<glyph unicode="#" d="M68 406v184h194l37 254h-170v184h195l57 406h199l-58 -406h199l55 406h199l-55 -406h151v-184h-178l-35 -254h152v-184h-179l-55 -406h-198l55 406h-197l-57 -406h-199l58 406h-170zM461 590h198l35 254h-196z" />
<glyph unicode="$" d="M-2 475h291q0 -109 61 -180t158 -90v428q-16 7 -66 18q-127 35 -212 77.5t-141 123.5t-56 207q0 134 65.5 230.5t174.5 148t235 59.5v158h121v-158q127 -14 227.5 -64t162.5 -143.5t71 -228.5h-291q-2 82 -51.5 139t-118.5 57v-362q71 -17 104 -27q141 -38 226 -96 t124 -124t48.5 -123t9.5 -132q0 -72 -48 -168t-163 -172t-301 -88v-174h-121v174q-153 12 -261 71.5t-171 171t-78 267.5zM324 1087q0 -67 42.5 -103.5t141.5 -59.5v333q-76 0 -130 -44.5t-54 -125.5zM629 205q54 5 104.5 28.5t83.5 66.5t33 106q0 79 -48 118.5t-173 73.5 v-393z" />
<glyph unicode="%" horiz-adv-x="2048" d="M154 1057q0 116 38 207.5t116 144.5t194 53q121 0 196.5 -54.5t107.5 -147t32 -211.5q0 -175 -87 -280t-259 -105q-338 0 -338 393zM362 1053q0 -103 22.5 -169.5t109.5 -66.5q83 0 109 69t26 165q0 258 -127 258q-86 0 -113 -75t-27 -181zM520 -45l848 1524h174 l-844 -1524h-178zM1210 375q0 176 88.5 285.5t260.5 109.5q335 0 335 -403q0 -113 -37.5 -203.5t-115 -141.5t-193.5 -51q-92 0 -156 30t-105 86.5t-59 129.5t-18 158zM1419 373q0 -66 6.5 -117t35.5 -91t89 -40q136 0 136 246q0 245 -127 245q-87 0 -113.5 -70t-26.5 -173z " />
<glyph unicode="&#x26;" horiz-adv-x="1403" d="M66 410q0 142 91.5 249.5t235.5 174.5q-70 86 -104.5 155t-34.5 156q0 97 53.5 174t141.5 118.5t186 41.5q112 0 203.5 -40t144.5 -119.5t53 -191.5q0 -82 -32.5 -149.5t-91.5 -120.5t-136 -94l189 -232q40 77 53 175h252q-24 -213 -142 -361l297 -346h-356l-119 145 q-43 -42 -89 -74.5t-96 -54.5t-108 -33.5t-118 -11.5q-133 0 -241.5 52.5t-170 152.5t-61.5 234zM342 403q0 -78 63 -135t146 -57q131 0 246 129l-250 305q-53 -23 -100.5 -58t-76 -80.5t-28.5 -103.5zM518 1155q0 -31 10 -61t22 -49t38 -51.5t45 -57.5q77 51 113 94.5 t36 114.5q0 58 -39.5 98.5t-93.5 40.5q-53 0 -92 -37t-39 -92z" />
<glyph unicode="'" horiz-adv-x="569" d="M176 805v657h219v-657h-219z" />
<glyph unicode="(" horiz-adv-x="606" d="M106 549q0 113 17.5 240.5t52.5 255.5t86 244t115 208h244q-57 -108 -98.5 -220t-70 -233t-42 -240.5t-13.5 -234.5q0 -243 54 -481t167 -461h-241q-130 216 -200.5 452.5t-70.5 469.5z" />
<glyph unicode=")" horiz-adv-x="606" d="M-14 -373q223 424 223 926q0 162 -24 323t-73.5 317.5t-123.5 303.5h241q64 -107 113 -215.5t85 -228.5t54.5 -238.5t18.5 -241.5q0 -122 -17 -243.5t-51 -248t-86 -244.5t-117 -210h-243z" />
<glyph unicode="*" horiz-adv-x="834" d="M45 1139l55 157l232 -90v256h164v-256l237 90l55 -157l-241 -80l151 -201l-135 -100l-151 211l-144 -211l-137 100l152 201z" />
<glyph unicode="+" horiz-adv-x="1229" d="M98 408v219h408v407h219v-407h408v-219h-408v-408h-219v408h-408z" />
<glyph unicode="," horiz-adv-x="569" d="M125 0v315h321v-315q0 -136 -90 -227t-229 -113v147q63 12 104 69t41 124h-147z" />
<glyph unicode="-" horiz-adv-x="834" d="M109 434v250h616v-250h-616z" />
<glyph unicode="." horiz-adv-x="569" d="M123 0v315h321v-315h-321z" />
<glyph unicode="/" horiz-adv-x="760" d="M-23 -35l572 1532h233l-571 -1532h-234z" />
<glyph unicode="0" d="M43 723q0 264 69.5 430.5t187 237.5t267.5 71q153 0 271 -71t188 -237.5t70 -430.5q0 -271 -70 -439.5t-187.5 -240.5t-271.5 -72q-151 0 -268 72t-186.5 240.5t-69.5 439.5zM334 723q0 -128 12 -234.5t64 -192t157 -85.5q155 0 196.5 151.5t41.5 360.5q0 200 -41.5 350 t-196.5 150q-151 0 -192 -150t-41 -350z" />
<glyph unicode="1" d="M152 930v219q82 0 150.5 14t126.5 47.5t95 89.5t47 134h232v-1434h-291v930h-360z" />
<glyph unicode="2" d="M43 0q1 157 58.5 268t145.5 187t249 186q47 31 107.5 72.5t100 78.5t66.5 87t27 112q0 66 -27.5 116t-76 77.5t-111.5 27.5q-119 0 -173.5 -97.5t-54.5 -231.5h-278q0 172 60.5 302.5t178 203.5t281.5 73q101 0 189.5 -31t156.5 -89t106.5 -141.5t38.5 -186.5 q0 -150 -66.5 -249t-189.5 -185q-35 -25 -107 -72t-124.5 -83.5t-98.5 -79t-83 -95.5h678v-250h-1053z" />
<glyph unicode="3" d="M37 494h276q5 -125 69 -204t183 -79q99 0 166.5 62.5t67.5 162.5q0 98 -49.5 145t-116.5 57.5t-166 10.5v205q16 -2 49 -2q107 0 181.5 42t74.5 138q0 45 -16 80.5t-44 60t-64.5 37.5t-78.5 13q-71 0 -120.5 -33t-75 -90.5t-25.5 -132.5h-276q5 147 67 259t172.5 174 t255.5 62q117 0 229 -47t182.5 -138.5t70.5 -211.5q0 -105 -51.5 -185t-149.5 -108v-4q78 -18 135 -63.5t88 -114.5t31 -148q0 -143 -73.5 -251.5t-196 -164t-263.5 -55.5q-156 0 -278 61.5t-188 179.5t-66 282z" />
<glyph unicode="4" d="M33 332v266l622 836h260v-863h191v-239h-191v-332h-276v332h-606zM262 571h377v498h-6z" />
<glyph unicode="5" d="M37 426h291q11 -95 75.5 -155t159.5 -60q110 0 179 82.5t69 193.5q0 75 -29.5 136.5t-85.5 97t-133 35.5q-75 0 -124 -26.5t-95 -88.5h-262l141 793h801v-240h-592l-57 -326l4 -4q58 60 126.5 85.5t153.5 25.5q204 0 323.5 -139t119.5 -349q0 -107 -40 -200.5 t-114.5 -165t-171.5 -111t-207 -39.5q-143 0 -263.5 52t-194 156t-74.5 247z" />
<glyph unicode="6" d="M43 713q0 189 58.5 359t185.5 280t319 110q189 0 315 -106t150 -291h-276q-8 45 -36 87.5t-68 66.5t-89 24q-97 0 -156.5 -70t-85.5 -166t-32 -200l4 -4q59 83 138.5 121.5t184.5 38.5q94 0 181 -40t149 -108q56 -64 83.5 -148t27.5 -171q0 -147 -63 -266.5t-179 -189 t-260 -69.5q-299 0 -425 211.5t-126 530.5zM354 477q0 -68 28.5 -129.5t82 -99t121.5 -37.5q99 0 159 79t60 183q0 69 -24 131t-74.5 100.5t-120.5 38.5q-112 0 -172 -76.5t-60 -189.5z" />
<glyph unicode="7" d="M80 1163v271h979v-250q-143 -124 -249 -328t-162 -431t-58 -425h-311q17 212 78.5 417t163.5 393.5t239 352.5h-680z" />
<glyph unicode="8" d="M29 420q0 90 32 161.5t93 120.5t145 70v4q-102 30 -156.5 109t-54.5 186q0 123 69.5 211.5t181.5 134t232 45.5q127 0 221 -38t149.5 -97t82.5 -126t27 -124q0 -108 -54.5 -187.5t-154.5 -113.5v-4q85 -20 145 -68t91.5 -121t31.5 -161q0 -142 -76 -245t-200 -154.5 t-261 -51.5q-144 0 -268.5 49.5t-200 151t-75.5 248.5zM319 434q0 -107 73.5 -175.5t180.5 -68.5q69 0 125.5 31t88.5 87t32 124q0 67 -32.5 119t-89 81.5t-124.5 29.5q-71 0 -129 -26.5t-91.5 -77.5t-33.5 -124zM352 1044q0 -89 63 -138.5t156 -49.5q92 0 153.5 50 t61.5 138q0 77 -47 138t-168 61q-92 0 -155.5 -54t-63.5 -145z" />
<glyph unicode="9" d="M43 938q0 107 36 203.5t103 168.5t159.5 112t203.5 40q299 0 425 -211.5t126 -529.5q0 -188 -58.5 -359t-186 -281t-319.5 -110q-123 0 -223 47.5t-162.5 136.5t-78.5 214h276q9 -50 36 -90.5t67.5 -64.5t89.5 -24q96 0 156 70t86 166.5t32 200.5l-4 4 q-113 -160 -324 -160q-92 0 -179.5 39.5t-149.5 107.5q-56 67 -83.5 150t-27.5 170zM334 961q0 -112 56.5 -191.5t162.5 -79.5q74 0 126.5 36t78.5 96t26 134q0 108 -63.5 187.5t-167.5 79.5q-99 0 -159 -79t-60 -183z" />
<glyph unicode=":" horiz-adv-x="569" d="M125 0v315h321v-315h-321zM125 725v315h321v-315h-321z" />
<glyph unicode=";" horiz-adv-x="569" d="M125 0v315h321v-315q-1 -91 -43 -163t-115 -117.5t-161 -59.5v147q63 12 104 69t41 124h-147zM125 725v315h321v-315h-321z" />
<glyph unicode="&#x3c;" horiz-adv-x="1229" d="M94 397v242l1041 414v-236l-752 -299l752 -299v-235z" />
<glyph unicode="=" horiz-adv-x="1229" d="M98 188v220h1035v-220h-1035zM98 627v219h1035v-219h-1035z" />
<glyph unicode="&#x3e;" horiz-adv-x="1229" d="M94 -16v235l752 299l-752 299v236l1041 -414v-242z" />
<glyph unicode="?" d="M66 991q3 148 65 262t173 179t259 65q136 0 237.5 -37.5t159 -95.5t85.5 -128.5t28 -133.5q0 -134 -44 -207.5t-128 -138.5q-106 -79 -147 -120t-54 -120v-78h-276v92q8 121 54.5 191.5t123.5 130.5q85 68 117.5 108t32.5 113q0 93 -45.5 138.5t-128.5 45.5 q-105 0 -157 -74t-54 -192h-301zM395 0v315h322v-315h-322z" />
<glyph unicode="@" horiz-adv-x="1638" d="M74 731q0 159 60 299t168.5 245.5t250.5 163.5t299 58q143 0 272 -45.5t227 -126.5t156 -197.5t58 -255.5q0 -148 -53 -261t-132.5 -186.5t-160.5 -109.5t-136 -36q-64 0 -105 33t-44 83h-4q-35 -60 -93.5 -89.5t-127.5 -29.5q-85 0 -160 48t-118.5 129t-43.5 174 q0 131 56 251t159 195.5t232 75.5q75 0 141 -34.5t98 -108.5l33 110h168l-129 -528q-17 -57 -17 -88q0 -47 35 -47q60 0 116 49t91 136t35 191q0 121 -42.5 215.5t-119 159.5t-175.5 97t-218 32q-171 0 -303.5 -78.5t-204.5 -217t-72 -310.5q0 -176 77 -312.5t214 -211 t313 -74.5q131 0 246 44t195 124h172q-103 -156 -267 -244t-358 -88q-215 0 -396.5 100.5t-286.5 276t-105 389.5zM596 653q0 -80 45 -131t115 -51q69 0 128 47t91.5 119.5t32.5 142.5q0 48 -20.5 88.5t-58 63t-79.5 22.5q-106 0 -180 -96.5t-74 -204.5z" />
<glyph unicode="A" horiz-adv-x="1403" d="M-14 0l555 1462h329l547 -1462h-334l-110 326h-547l-115 -326h-325zM510 565h379l-184 537h-5z" />
<glyph unicode="B" horiz-adv-x="1442" d="M141 0v1462h688q112 0 196.5 -19t144.5 -61t93 -112t33 -170q0 -210 -198 -305q132 -38 200 -134.5t68 -236.5t-72 -236.5t-188.5 -142t-255.5 -45.5h-709zM463 250h344q237 0 237 192q0 108 -62 158.5t-169 50.5h-350v-401zM463 870h325q90 0 143.5 43.5t53.5 130.5 q0 96 -60 132t-161 36h-301v-342z" />
<glyph unicode="C" horiz-adv-x="1518" d="M78 725q0 162 48.5 303t142 246.5t228.5 164t300 58.5q161 0 298.5 -62t225 -181t106.5 -283h-311q-10 72 -56 130.5t-115.5 92t-147.5 33.5q-137 0 -226.5 -69.5t-130.5 -183t-41 -249.5q0 -130 40.5 -240.5t130.5 -179.5t227 -69q142 0 227 89t104 238h312 q-16 -179 -100.5 -314.5t-225 -209.5t-317.5 -74q-220 0 -383.5 100.5t-249.5 273.5t-86 386z" />
<glyph unicode="D" horiz-adv-x="1518" d="M141 0v1462h631q144 0 265 -44.5t210.5 -135t139 -228.5t49.5 -315q0 -215 -74 -382.5t-224.5 -262t-365.5 -94.5h-631zM463 270h287q98 0 180.5 44t133 143t50.5 252q0 117 -21 203.5t-70 150t-131 96.5t-200 33h-229v-922z" />
<glyph unicode="E" horiz-adv-x="1327" d="M141 0v1462h1094v-270h-772v-313h708v-250h-708v-359h788v-270h-1110z" />
<glyph unicode="F" horiz-adv-x="1214" d="M141 0v1462h1028v-270h-706v-338h612v-250h-612v-604h-322z" />
<glyph unicode="G" horiz-adv-x="1554" d="M78 725q0 162 48.5 303t142 246.5t228.5 164t300 58.5q153 0 288 -61.5t222.5 -177t105.5 -277.5h-307q-17 78 -61.5 134t-107.5 84t-140 28q-137 0 -226.5 -69.5t-130.5 -183t-41 -249.5q0 -130 40.5 -240.5t130.5 -179.5t227 -69q104 0 178.5 36t117.5 107.5t52 171.5 h-324v240h615v-791h-205l-33 166q-56 -71 -121 -115.5t-135.5 -65t-144.5 -20.5q-220 0 -383.5 100.5t-249.5 273.5t-86 386z" />
<glyph unicode="H" horiz-adv-x="1518" d="M141 0v1462h322v-561h592v561h321v-1462h-321v631h-592v-631h-322z" />
<glyph unicode="I" horiz-adv-x="604" d="M141 0v1462h322v-1462h-322z" />
<glyph unicode="J" d="M29 418v127h290v-66q0 -117 40.5 -180t146.5 -63q78 0 115.5 35.5t46 83.5t8.5 120v987h321v-1001q0 -87 -16.5 -168t-66.5 -156t-149.5 -123.5t-254.5 -48.5q-201 0 -341 114.5t-140 338.5z" />
<glyph unicode="K" horiz-adv-x="1479" d="M141 0v1462h322v-606l571 606h402l-572 -577l627 -885h-404l-440 657l-184 -186v-471h-322z" />
<glyph unicode="L" horiz-adv-x="1214" d="M141 0v1462h322v-1192h713v-270h-1035z" />
<glyph unicode="M" horiz-adv-x="1858" d="M141 0v1462h453l342 -1005h4l324 1005h452v-1462h-301v1036h-4l-358 -1036h-248l-359 1026h-4v-1026h-301z" />
<glyph unicode="N" horiz-adv-x="1518" d="M141 0v1462h320l610 -981h4v981h301v-1462h-321l-609 979h-4v-979h-301z" />
<glyph unicode="O" horiz-adv-x="1593" d="M78 725q0 162 48.5 303t142 246.5t228.5 164t300 58.5q166 0 301.5 -59t227.5 -162.5t141 -246t49 -304.5q0 -213 -86.5 -386t-249.5 -273.5t-383 -100.5t-383.5 100.5t-249.5 273.5t-86 386zM399 725q0 -130 40.5 -240.5t130.5 -179.5t227 -69t226.5 69t130 179.5 t40.5 240.5q0 136 -41 249.5t-129.5 183t-226.5 69.5q-137 0 -226.5 -69.5t-130.5 -183t-41 -249.5z" />
<glyph unicode="P" horiz-adv-x="1366" d="M141 0v1462h660q133 0 230.5 -38t158.5 -104.5t89 -150t28 -176.5q0 -125 -53 -232t-167.5 -172t-285.5 -65h-338v-524h-322zM463 774h250q132 0 207 45.5t75 173.5t-75 173.5t-207 45.5h-250v-438z" />
<glyph unicode="Q" horiz-adv-x="1593" d="M78 725q0 162 48.5 303t142 246.5t228.5 164t300 58.5q166 0 301.5 -59t227.5 -162.5t141 -246t49 -304.5q0 -322 -191 -539l182 -166l-149 -157l-207 188q-150 -86 -354 -86q-220 0 -383.5 100.5t-249.5 273.5t-86 386zM399 725q0 -130 40.5 -240.5t130.5 -179.5 t227 -69q106 0 129 20l-138 125l150 160l166 -152q90 126 90 336q0 136 -41 249.5t-129.5 183t-226.5 69.5q-137 0 -226.5 -69.5t-130.5 -183t-41 -249.5z" />
<glyph unicode="R" horiz-adv-x="1479" d="M141 0v1462h789q126 0 224 -53.5t151 -146.5t53 -203q0 -133 -57 -226t-175 -141v-4q109 -27 156.5 -120t56.5 -222q3 -39 7.5 -115t16 -134.5t38.5 -96.5h-322q-12 31 -20.5 74.5t-13 91t-8 94.5t-9.5 90q-11 78 -38 126.5t-76 71.5t-130 23h-321v-571h-322zM463 801 h352q221 0 221 209q0 202 -221 202h-352v-411z" />
<glyph unicode="S" horiz-adv-x="1329" d="M49 485h311q0 -136 91.5 -203t232.5 -67q111 0 198 41t87 141q0 56 -34.5 93.5t-95 62.5t-139 45t-165.5 41q-133 35 -225.5 79.5t-152 126t-59.5 210.5q0 107 46.5 191.5t125 140t176.5 83t199 27.5q120 0 224.5 -27t185.5 -82.5t128.5 -146.5t47.5 -215h-311 q-7 123 -83.5 172t-205.5 49q-55 0 -105.5 -16.5t-83 -54t-32.5 -95.5q0 -44 17.5 -69.5t60 -46t142.5 -48t216 -57.5q171 -42 302.5 -128t131.5 -298q0 -136 -70.5 -242t-207 -166.5t-330.5 -60.5q-166 0 -309 56.5t-228.5 174t-85.5 289.5z" />
<glyph unicode="T" horiz-adv-x="1251" d="M27 1192v270h1198v-270h-439v-1192h-321v1192h-438z" />
<glyph unicode="U" horiz-adv-x="1518" d="M135 553v909h322v-909q0 -145 62 -231t239 -86q113 0 179.5 33.5t95 103t28.5 180.5v909h321v-909q0 -147 -42 -257.5t-121 -183t-196 -110t-265 -37.5q-299 0 -461 148.5t-162 439.5z" />
<glyph unicode="V" horiz-adv-x="1290" d="M-16 1462h331l326 -1028h4l330 1028h332l-486 -1462h-362z" />
<glyph unicode="W" horiz-adv-x="1933" d="M6 1462h322l231 -995h4l254 995h301l250 -1007h4l240 1007h315l-393 -1462h-320l-247 995h-4l-244 -995h-326z" />
<glyph unicode="X" horiz-adv-x="1366" d="M-12 0l512 766l-471 696h372l287 -467l297 467h352l-469 -698l510 -764h-383l-319 506l-326 -506h-362z" />
<glyph unicode="Y" horiz-adv-x="1366" d="M-18 1462h362l342 -577l340 577h358l-542 -901v-561h-322v569z" />
<glyph unicode="Z" horiz-adv-x="1327" d="M47 0v254l784 938h-722v270h1151v-254l-785 -938h805v-270h-1233z" />
<glyph unicode="[" horiz-adv-x="682" d="M139 -373v1870h541v-229h-250v-1411h250v-230h-541z" />
<glyph unicode="\" horiz-adv-x="760" d="M-23 1497h234l571 -1532h-233z" />
<glyph unicode="]" horiz-adv-x="682" d="M2 -143h250v1411h-250v229h541v-1870h-541v230z" />
<glyph unicode="^" horiz-adv-x="1229" d="M125 645l352 789h275l352 -789h-240l-250 563l-249 -563h-240z" />
<glyph unicode="_" horiz-adv-x="1024" d="M0 -154h1024v-102h-1024v102z" />
<glyph unicode="`" horiz-adv-x="530" d="M-98 1481h321l197 -291h-203z" />
<glyph unicode="a" horiz-adv-x="1176" d="M66 289q0 163 97 231t263 90q38 6 120.5 16t126.5 22t70.5 36t26.5 66q0 86 -49 114.5t-139 28.5q-87 0 -136.5 -38t-56.5 -122h-291q12 189 152.5 271.5t345.5 82.5q197 0 331 -65t134 -236v-550q0 -72 8.5 -137.5t28.5 -98.5h-295q-19 61 -21 102q-65 -68 -158.5 -99.5 t-197.5 -31.5q-159 0 -259.5 81t-100.5 237zM356 301q0 -135 179 -135q146 0 190.5 77.5t44.5 166.5v108q-23 -20 -58.5 -30t-96.5 -18.5t-87 -12.5q-80 -16 -126 -50t-46 -106z" />
<glyph unicode="b" horiz-adv-x="1251" d="M111 0v1462h290v-532h5q35 52 87.5 87.5t114 52.5t131.5 17q84 0 161 -33.5t140.5 -102t100.5 -175t37 -246.5q0 -183 -63.5 -310t-164.5 -188t-211 -61q-258 0 -348 164h-4v-135h-276zM391 528q0 -93 27 -169t83 -122.5t138 -46.5t138 46.5t83 122.5t27 169 q0 146 -63 243t-185 97q-123 0 -185.5 -97t-62.5 -243z" />
<glyph unicode="c" horiz-adv-x="1176" d="M78 514q0 165 63.5 295.5t186.5 204t290 73.5q131 0 240.5 -45t179 -135.5t78.5 -220.5h-285q-13 89 -68.5 135.5t-146.5 46.5q-128 0 -187.5 -103t-59.5 -241q0 -81 24 -158.5t78 -126.5t139 -49q98 0 158 58.5t74 157.5h280q-18 -138 -85.5 -236.5t-176.5 -148.5 t-248 -50q-118 0 -217 40.5t-170 113.5t-109 173.5t-38 215.5z" />
<glyph unicode="d" horiz-adv-x="1251" d="M66 539q0 147 53.5 271.5t160 200.5t255.5 76q98 0 181.5 -40.5t131.5 -116.5h4v532h291v-1462h-277v135h-4q-47 -82 -130.5 -123t-190.5 -41q-153 0 -260.5 78.5t-161 207.5t-53.5 282zM356 530q0 -89 27.5 -166t85.5 -125.5t143 -48.5q90 0 146.5 47t80 123t23.5 172 q0 93 -24.5 169t-80.5 121.5t-145 45.5q-133 0 -194.5 -96.5t-61.5 -241.5z" />
<glyph unicode="e" horiz-adv-x="1176" d="M59 528q0 116 39 219t112 180t173 118.5t217 41.5q125 0 222 -45.5t162.5 -125.5t98.5 -185.5t33 -220.5q0 -35 -2 -51h-764q12 -269 260 -269q55 0 104.5 20t83 53t42.5 65h256q-60 -183 -185.5 -270t-310.5 -87q-121 0 -222.5 40.5t-173 116t-108.5 177t-37 223.5z M350 643h473q-20 115 -73.5 170t-157.5 55q-85 0 -138.5 -36.5t-77.5 -89t-26 -99.5z" />
<glyph unicode="f" horiz-adv-x="682" d="M0 864v195h174v82q0 94 39.5 167t119.5 113.5t195 40.5q39 0 84.5 -3.5t69.5 -4.5v-217q-52 6 -107 6q-59 0 -84.5 -27.5t-25.5 -93.5v-63h201v-195h-201v-864h-291v864h-174z" />
<glyph unicode="g" horiz-adv-x="1251" d="M78 563q0 143 53 262t155.5 190.5t245.5 71.5q219 0 316 -169h4v141h276v-991q0 -78 -19.5 -156t-77.5 -150.5t-169.5 -117.5t-281.5 -45q-111 0 -216 36t-174.5 113t-76.5 191h288q36 -146 217 -146q117 0 175.5 71.5t58.5 190.5v140h-4q-46 -79 -132 -121.5t-186 -42.5 q-115 0 -200.5 40.5t-142 115t-83 171t-26.5 205.5zM369 567q0 -132 56 -224.5t179 -92.5q78 0 135 40.5t85 107t28 145.5q0 66 -13 125.5t-41.5 104.5t-76 70t-117.5 25q-116 0 -175.5 -87t-59.5 -214z" />
<glyph unicode="h" horiz-adv-x="1214" d="M111 0v1462h290v-551h7q53 86 138 131t171 45q149 0 234.5 -52.5t119 -149.5t33.5 -234v-651h-291v598q0 133 -43 196.5t-143 63.5q-79 0 -129 -31t-73.5 -97t-23.5 -175v-555h-290z" />
<glyph unicode="i" horiz-adv-x="528" d="M119 0v1059h291v-1059h-291zM119 1223v239h291v-239h-291z" />
<glyph unicode="j" horiz-adv-x="569" d="M-39 -125q25 -8 64 -8q52 0 82 20t30 74v1098h291v-1112q0 -84 -17.5 -143t-60 -98.5t-115 -59t-180.5 -19.5q-32 0 -94 8v240zM137 1223v239h291v-239h-291z" />
<glyph unicode="k" horiz-adv-x="1176" d="M137 0v1462h291v-784l367 381h344l-400 -389l445 -670h-353l-290 473l-113 -108v-365h-291z" />
<glyph unicode="l" horiz-adv-x="528" d="M119 0v1462h291v-1462h-291z" />
<glyph unicode="m" horiz-adv-x="1855" d="M119 0v1059h274v-144h4q58 83 141 127.5t183 44.5q71 0 129 -18t105 -57t75 -101q51 77 134 126.5t186 49.5q117 0 203.5 -38.5t135 -123t48.5 -216.5v-709h-291v600q0 129 -32 193.5t-146 64.5q-112 0 -153.5 -74t-41.5 -194v-590h-291v594q0 87 -9.5 142t-48 88.5 t-118.5 33.5q-38 0 -82.5 -20t-79 -74t-34.5 -150v-614h-291z" />
<glyph unicode="n" horiz-adv-x="1214" d="M111 0v1059h276v-148h6q54 87 140.5 131.5t183.5 44.5q149 0 234.5 -52.5t119 -149.5t33.5 -234v-651h-291v598q0 133 -43 196.5t-143 63.5q-79 0 -129 -31t-73.5 -97t-23.5 -175v-555h-290z" />
<glyph unicode="o" horiz-adv-x="1251" d="M78 528q0 124 38 228t110.5 178t174 113.5t224.5 39.5q124 0 226 -39.5t174 -113t110.5 -176t38.5 -230.5q0 -126 -38 -227t-111.5 -176.5t-174.5 -114.5t-225 -39q-165 0 -288.5 69t-191 196t-67.5 292zM369 528q0 -143 60.5 -240.5t195.5 -97.5q137 0 197.5 97 t60.5 241q0 146 -60 243t-198 97q-136 0 -196 -97.5t-60 -242.5z" />
<glyph unicode="p" horiz-adv-x="1251" d="M111 -373v1432h276v-135h4q102 163 316 163q157 0 266 -77t162 -207.5t53 -284.5q0 -144 -52.5 -269t-158.5 -201.5t-254 -76.5q-96 0 -180.5 41.5t-136.5 118.5h-5v-504h-290zM391 526q0 -92 25 -167.5t82.5 -122t146.5 -46.5q92 0 147.5 46t80 122.5t24.5 167.5 t-26 168t-82.5 125.5t-145.5 48.5q-132 0 -192 -98t-60 -244z" />
<glyph unicode="q" horiz-adv-x="1251" d="M66 522q0 110 29 211.5t89 182t150.5 126t206.5 45.5q67 0 128.5 -17t111.5 -54.5t81 -91.5h4v135h277v-1432h-291v506h-4q-49 -82 -140 -122t-194 -40q-107 0 -210 56t-170.5 180.5t-67.5 314.5zM356 528q0 -143 60 -240.5t192 -97.5q90 0 147 45.5t82 120t25 168.5 q0 90 -25 167.5t-80.5 127t-142.5 49.5q-131 0 -194.5 -98.5t-63.5 -241.5z" />
<glyph unicode="r" horiz-adv-x="797" d="M111 0v1059h276v-197h4q27 67 79 117t120 79t139 29q32 0 64 -10v-270q-45 10 -105 10q-150 0 -218.5 -93.5t-68.5 -246.5v-477h-290z" />
<glyph unicode="s" horiz-adv-x="1100" d="M59 344h277q1 -89 65 -133.5t158 -44.5q76 0 133.5 32.5t57.5 102.5q0 42 -37 70t-100.5 47t-192.5 47q-157 35 -246.5 96t-89.5 187q0 186 130.5 262.5t330.5 76.5q91 0 171 -16.5t144.5 -56t104.5 -105t47 -159.5h-277q-10 143 -198 143q-162 0 -162 -98 q0 -49 43.5 -76t126 -46t160.5 -36q155 -35 245 -99t90 -198q0 -194 -138.5 -281.5t-344.5 -87.5q-133 0 -242.5 36.5t-179.5 120.5t-76 216z" />
<glyph unicode="t" horiz-adv-x="721" d="M12 864v195h176v317h291v-317h213v-195h-213v-524q0 -74 24.5 -98.5t98.5 -24.5q50 0 90 8v-227q-61 -10 -170 -10q-155 0 -244.5 54t-89.5 198v624h-176z" />
<glyph unicode="u" horiz-adv-x="1214" d="M111 408v651h290v-598q0 -133 44 -196.5t143 -63.5q119 0 172 71.5t53 231.5v555h291v-1059h-277v147h-6q-36 -58 -87.5 -97.5t-111.5 -59t-124 -19.5q-149 0 -234 52t-119 147t-34 238z" />
<glyph unicode="v" horiz-adv-x="1065" d="M10 1059h305l224 -723h4l223 723h289l-359 -1059h-323z" />
<glyph unicode="w" horiz-adv-x="1667" d="M12 1059h307l195 -719h4l176 719h283l180 -717h4l195 717h299l-334 -1059h-299l-188 711h-5l-180 -711h-301z" />
<glyph unicode="x" horiz-adv-x="1100" d="M0 0l381 557l-348 502h332l186 -277l184 277h322l-348 -496l391 -563h-332l-221 334l-221 -334h-326z" />
<glyph unicode="y" horiz-adv-x="1063" d="M-12 1059h311l240 -725h4l231 725h301l-442 -1192q-48 -128 -132 -184t-233 -56q-84 0 -178 11v239q138 -10 170 -10q54 6 83.5 43t29.5 90q0 36 -13 66z" />
<glyph unicode="z" horiz-adv-x="1063" d="M45 0v219l551 621h-510v219h893v-219l-551 -621h590v-219h-973z" />
<glyph unicode="{" horiz-adv-x="682" d="M-18 473v178q28 0 58 9.5t61 32.5t50 59.5t19 83.5v385q0 66 25 118.5t65 88t82 52.5t80 17h260v-229h-111q-64 0 -87 -42.5t-23 -107.5v-311q0 -132 -63.5 -182t-139.5 -60v-6q38 -4 85.5 -26t82.5 -72t35 -127v-328q0 -65 23 -107t87 -42h111v-230h-260 q-83 0 -167.5 74.5t-84.5 202.5v399q0 56 -31 95t-75 57t-82 18z" />
<glyph unicode="|" horiz-adv-x="457" d="M119 -438v2048h219v-2048h-219z" />
<glyph unicode="}" horiz-adv-x="682" d="M0 -143h111q66 0 88 42t22 107v328q0 113 66.5 165.5t136.5 59.5v6q-203 26 -203 242v311q0 150 -110 150h-111v229h260q84 0 168 -75t84 -201v-385q0 -92 62.5 -138.5t125.5 -46.5v-178q-63 0 -125.5 -43t-62.5 -127v-399q0 -127 -85 -202t-167 -75h-260v230z" />
<glyph unicode="~" horiz-adv-x="1229" d="M137 520q92 176 256 176q83 0 228 -65q38 -17 77 -34.5t73.5 -28.5t57.5 -11q55 0 96 39t85 109l82 -191q-62 -86 -117 -131t-139 -45q-86 0 -209 68q-130 71 -236 71q-104 0 -172 -147z" />
<glyph unicode="&#xa1;" horiz-adv-x="569" d="M125 772v315h321v-315h-321zM133 18l80 631h145l78 -631v-393h-303v393z" />
<glyph unicode="&#xa2;" d="M43 512q0 155 56.5 281.5t167 203.5t265.5 90v175h121v-175q116 -2 219.5 -51.5t169.5 -141t70 -210.5h-285q-6 74 -55 126t-119 58v-678q47 8 88.5 42t64.5 82.5t25 101.5h285q-16 -192 -143.5 -310t-319.5 -135v-207h-121v207q-108 7 -198 51t-155.5 117.5t-100.5 169 t-35 203.5zM334 541q0 -127 45.5 -222t152.5 -129v676q-68 -19 -113.5 -68.5t-65 -116t-19.5 -140.5z" />
<glyph unicode="&#xa3;" d="M43 633v174h131q-36 47 -64 124t-28 159q0 110 61 203.5t179.5 148.5t283.5 55q234 0 366 -133t132 -379h-277q-5 70 -18 124.5t-61.5 101t-143.5 46.5q-91 0 -146 -51t-55 -137q0 -56 14.5 -108t69.5 -154h273v-174h-215q16 -55 16 -127q0 -89 -45 -157t-123 -130l4 -4 q43 27 74 37t66 10q44 0 161 -22q104 -25 160 -25q47 0 89 17.5t91 70.5l123 -207q-70 -67 -153 -99t-166 -32q-117 0 -224 37q-115 41 -202 41q-135 0 -236 -78l-127 191q101 65 166.5 150.5t65.5 189.5q0 57 -39 137h-203z" />
<glyph unicode="&#xa4;" d="M41 305l117 119q-48 55 -73.5 131.5t-25.5 159.5q0 87 25 166.5t74 128.5l-117 118l117 117l116 -115q52 44 132 69.5t167 25.5q56 0 109 -12t96.5 -31.5t75.5 -48.5l119 116l125 -125l-115 -112q44 -49 68 -127t24 -166q0 -86 -25 -165.5t-69 -133.5l113 -115l-113 -112 l-117 118q-50 -49 -127.5 -75.5t-165.5 -26.5q-190 0 -301 100l-114 -119zM313 715q0 -119 69 -203t189 -84t185 85t65 206q0 74 -28 139.5t-85 106.5t-135 41q-123 0 -191.5 -85t-68.5 -206z" />
<glyph unicode="&#xa5;" d="M-18 1462h333l271 -637l264 637h332l-318 -637h195v-194h-293l-31 -60v-94h324v-194h-324v-283h-311v283h-322v194h322v94l-29 60h-293v194h195z" />
<glyph unicode="&#xa6;" horiz-adv-x="457" d="M119 -182v512h219v-512h-219zM119 842v512h219v-512h-219z" />
<glyph unicode="&#xa7;" d="M20 637q0 108 57.5 185t162.5 114q-45 48 -66.5 97.5t-21.5 109.5q0 109 61 189.5t161 122.5t206 42q91 0 171 -26.5t138 -77t90.5 -124.5t32.5 -167h-254q0 51 -21 91t-60.5 62.5t-92.5 22.5q-60 0 -108 -36.5t-48 -94.5q0 -41 28 -74t76.5 -63t137.5 -71.5t106 -49.5 q163 -78 252.5 -161.5t89.5 -215.5q0 -102 -58.5 -183t-154.5 -116q113 -85 113 -242q0 -110 -63.5 -187.5t-163.5 -117t-209 -39.5q-134 0 -238 42.5t-163.5 131.5t-59.5 224h254q9 -179 200 -179q67 0 109.5 35.5t42.5 100.5q0 44 -27 79.5t-73.5 65t-120.5 63.5t-127 58 q-111 53 -186 102.5t-124 121t-49 165.5zM274 662q0 -64 66 -101l369 -201q33 -14 61 -14q37 0 65.5 37.5t28.5 75.5q0 78 -92 129l-338 190q-42 21 -55 21q-44 -4 -74.5 -47t-30.5 -90z" />
<glyph unicode="&#xa8;" horiz-adv-x="530" d="M-84 1223v239h277v-239h-277zM338 1223v239h276v-239h-276z" />
<glyph unicode="&#xa9;" horiz-adv-x="1638" d="M33 731q0 170 63 313.5t173.5 244.5t252.5 154.5t297 53.5t298 -53.5t253 -154.5t173 -243.5t63 -314.5q0 -225 -107.5 -399.5t-289 -270.5t-390.5 -96q-155 0 -297.5 54.5t-252.5 156t-173 244t-63 311.5zM242 731q0 -171 76.5 -308.5t209.5 -215.5t291 -78 q157 0 290 78t210.5 216.5t77.5 307.5q0 170 -77.5 308t-210.5 216t-290 78q-117 0 -224 -44.5t-186 -125.5t-123 -192t-44 -240zM408 735q0 132 52 236.5t151 163.5t233 59q95 0 174 -36.5t131 -108.5t65 -172h-159q-15 70 -72 111.5t-139 41.5q-114 0 -177 -80t-63 -211 q0 -122 67 -208.5t177 -86.5q84 0 141 43.5t66 116.5h166q-16 -100 -70 -173.5t-133 -111.5t-170 -38q-128 0 -229 59.5t-156 162.5t-55 232z" />
<glyph unicode="&#xaa;" horiz-adv-x="705" d="M20 973q0 102 63 143.5t171 54.5q6 1 68.5 8t89.5 13t44 20t17 37q0 48 -31 64t-92 16q-40 0 -68 -22t-32 -68h-209q16 123 113 178q78 45 206 45q133 0 220.5 -38.5t87.5 -143.5v-340q0 -110 24 -154h-207q-11 31 -14 64q-78 -82 -221 -82q-102 0 -166 51t-64 154z M229 977q0 -39 28 -57.5t65 -18.5q90 0 119.5 44t29.5 110v41q-13 -12 -35.5 -18.5t-54.5 -11t-47 -7.5q-105 -22 -105 -82z" />
<glyph unicode="&#xab;" horiz-adv-x="909" d="M86 420v276l322 252v-246l-185 -145l185 -147v-246zM502 420v276l321 252v-246l-184 -145l184 -147v-246z" />
<glyph unicode="&#xac;" horiz-adv-x="1229" d="M98 612v219h1032v-628h-219v409h-813z" />
<glyph unicode="&#xad;" horiz-adv-x="834" d="M109 434v250h616v-250h-616z" />
<glyph unicode="&#xae;" horiz-adv-x="1638" d="M33 733q0 171 63.5 313t173.5 243t252 154.5t297 53.5t298 -53.5t253 -154.5t173 -242.5t63 -313.5q0 -226 -108 -401t-289 -271t-390 -96q-155 0 -297.5 54.5t-252 155.5t-173 244.5t-63.5 313.5zM242 733q0 -129 44 -239.5t123.5 -192.5t186 -127t223.5 -45 q157 0 290 78t210.5 217t77.5 309q0 129 -45.5 240.5t-124.5 191t-184.5 124t-223.5 44.5q-117 0 -223.5 -44.5t-185.5 -124.5t-123.5 -191.5t-44.5 -239.5zM514 305v858h324q168 0 252 -59t84 -195q0 -110 -61.5 -165.5t-164.5 -63.5l230 -375h-179l-208 367h-107v-367 h-170zM684 805h152q82 0 125 23.5t43 95.5q0 106 -177 106h-143v-225z" />
<glyph unicode="&#xaf;" horiz-adv-x="530" d="M-117 1262v153h764v-153h-764z" />
<glyph unicode="&#xb0;" horiz-adv-x="819" d="M106 1159q0 82 41 152t111 110.5t152 40.5t152 -40.5t110.5 -110.5t40.5 -152t-40.5 -152t-110.5 -110.5t-152 -40.5t-152 40.5t-111 110.5t-41 152zM240 1159q0 -47 24 -89t63 -66.5t83 -24.5t83 24.5t63 66.5t24 89t-24 89t-63 66.5t-83 24.5t-83 -24.5t-63 -66.5 t-24 -89z" />
<glyph unicode="&#xb1;" horiz-adv-x="1229" d="M98 0v219h1035v-219h-1035zM98 549v219h408v268h219v-268h408v-219h-408v-268h-219v268h-408z" />
<glyph unicode="&#xb2;" horiz-adv-x="803" d="M55 559q1 101 37 172t90.5 117t159.5 113q40 25 74.5 47t60.5 44t44 53t18 66t-16 65t-44 46t-65 16q-78 0 -113 -58t-35 -134h-209q0 165 93.5 260.5t277.5 95.5q136 0 228 -72.5t92 -203.5q0 -90 -42.5 -148.5t-123.5 -113.5q-62 -37 -107.5 -64.5t-89.5 -62t-74 -74.5 h428v-164h-684z" />
<glyph unicode="&#xb3;" horiz-adv-x="803" d="M45 868h197q3 -70 44 -116.5t113 -46.5q64 0 107 36.5t43 92.5q0 76 -58 96t-155 20v144q88 0 141 16.5t53 79.5q0 50 -37 79t-90 29q-64 0 -100.5 -41.5t-36.5 -105.5h-196q5 144 93 227.5t238 83.5q85 0 159.5 -29t120.5 -86.5t46 -136.5q0 -64 -34 -111t-101 -65v-4 q77 -14 121.5 -67t44.5 -125q0 -142 -101.5 -219.5t-253.5 -77.5q-167 0 -262.5 84.5t-95.5 242.5z" />
<glyph unicode="&#xb4;" horiz-adv-x="530" d="M111 1190l196 291h322l-316 -291h-202z" />
<glyph unicode="&#xb5;" horiz-adv-x="1214" d="M111 -373v1432h290v-598q0 -133 44 -196.5t143 -63.5q119 0 172 71.5t53 231.5v555h291v-1059h-277v147h-6q-50 -82 -130 -129t-136 -47q-107 0 -154 49v-393h-290z" />
<glyph unicode="&#xb6;" horiz-adv-x="1270" d="M4 1090q0 202 129.5 287t362.5 85h600v-1802h-209v1638h-225v-1638h-209v1071q-213 0 -331 96.5t-118 262.5z" />
<glyph unicode="&#xb8;" horiz-adv-x="530" d="M25 -401l43 98q84 -37 172 -37q82 0 82 70q0 65 -82 65q-43 0 -82 -14l-43 49l121 174h100l-80 -113h4q19 11 70 11q76 0 132 -36.5t56 -107.5q0 -109 -67.5 -156.5t-171.5 -47.5q-82 0 -126 8.5t-128 36.5z" />
<glyph unicode="&#xb9;" horiz-adv-x="803" d="M158 1120v154q237 0 262 170h172v-885h-209v561h-225z" />
<glyph unicode="&#xba;" horiz-adv-x="752" d="M25 1114q0 108 43.5 186t123.5 120t183 42q104 0 185 -42t124 -120t43 -186q0 -160 -95.5 -253t-256.5 -93q-159 0 -254.5 93t-95.5 253zM244 1114q0 -75 33.5 -133.5t97.5 -58.5t98.5 58.5t34.5 133.5q0 78 -34 136.5t-99 58.5t-98 -58.5t-33 -136.5z" />
<glyph unicode="&#xbb;" horiz-adv-x="909" d="M86 164v246l184 147l-184 145v246l322 -252v-276zM502 164v246l184 147l-184 145v246l321 -252v-276z" />
<glyph unicode="&#xbc;" horiz-adv-x="1827" d="M49 1120v154q109 0 179 39t83 131h172v-885h-209v561h-225zM311 -45l848 1524h174l-844 -1524h-178zM1018 182v191l385 487h205v-514h116v-164h-116v-182h-197v182h-393zM1174 346h237v295h-4z" />
<glyph unicode="&#xbd;" horiz-adv-x="1821" d="M49 1120v154q109 0 179 39t83 131h172v-885h-209v561h-225zM311 -45l848 1524h174l-844 -1524h-178zM1040 0q1 101 37 172t96 120.5t154 108.5q40 25 72 45.5t60.5 44.5t46.5 55t18 66q0 36 -16 65.5t-44 45.5t-65 16q-78 0 -113 -58t-35 -134h-209q0 165 93.5 260.5 t277.5 95.5q136 0 228 -72.5t92 -203.5q0 -90 -42.5 -148.5t-123.5 -113.5q-53 -33 -102.5 -62.5t-93.5 -63t-75 -75.5h428v-164h-684z" />
<glyph unicode="&#xbe;" horiz-adv-x="1821" d="M80 868h196q5 -71 45.5 -117t112.5 -46q64 0 107 36.5t43 92.5q0 76 -58 96t-155 20v144q88 0 141 16.5t53 79.5q0 50 -37 79t-90 29q-64 0 -100.5 -41.5t-36.5 -105.5h-197q6 144 93.5 227.5t238.5 83.5q85 0 159.5 -29t120.5 -86.5t46 -136.5q0 -64 -34 -111t-101 -65 v-4q77 -14 121.5 -67t44.5 -125q0 -142 -101.5 -219.5t-253.5 -77.5q-167 0 -262.5 84.5t-95.5 242.5zM489 -45l848 1524h174l-843 -1524h-179zM1059 182v191l385 487h205v-514h116v-164h-116v-182h-197v182h-393zM1214 346h238v295h-4z" />
<glyph unicode="&#xbf;" d="M66 -6q0 134 44.5 208t127.5 138q108 81 148 121t52 119v77h277v-92q-8 -117 -54 -188.5t-124 -132.5q-81 -65 -115.5 -107.5t-34.5 -113.5q0 -92 46 -138.5t128 -46.5q102 0 153.5 74.5t53.5 191.5h301q-1 -105 -37.5 -199.5t-101.5 -163t-154.5 -105.5t-200.5 -37 q-180 0 -294.5 62t-164.5 152t-50 181zM422 772v315h321v-315h-321z" />
<glyph unicode="&#xc0;" horiz-adv-x="1403" d="M-14 0l555 1462h329l547 -1462h-334l-110 326h-547l-115 -326h-325zM338 1884h321l197 -291h-203zM510 565h379l-184 537h-5z" />
<glyph unicode="&#xc1;" horiz-adv-x="1403" d="M-14 0l555 1462h329l547 -1462h-334l-110 326h-547l-115 -326h-325zM510 565h379l-184 537h-5zM547 1593l196 291h322l-316 -291h-202z" />
<glyph unicode="&#xc2;" horiz-adv-x="1403" d="M-14 0l555 1462h329l547 -1462h-334l-110 326h-547l-115 -326h-325zM342 1593l227 291h266l226 -291h-240l-127 166l-131 -166h-221zM510 565h379l-184 537h-5z" />
<glyph unicode="&#xc3;" horiz-adv-x="1403" d="M-14 0l555 1462h329l547 -1462h-334l-110 326h-547l-115 -326h-325zM325 1615q27 114 82 182t176 68q33 0 66 -10.5t66 -24.5q86 -36 135 -36q43 0 64.5 20t21.5 51h141q-31 -104 -63 -151q-58 -82 -166 -82q-22 0 -41 2.5t-43.5 8.5t-44 12t-39.5 12q-96 34 -144 34 q-39 0 -56.5 -20t-29.5 -66h-125zM510 565h379l-184 537h-5z" />
<glyph unicode="&#xc4;" horiz-adv-x="1403" d="M-14 0l555 1462h329l547 -1462h-334l-110 326h-547l-115 -326h-325zM352 1626v239h277v-239h-277zM510 565h379l-184 537h-5zM774 1626v239h276v-239h-276z" />
<glyph unicode="&#xc5;" horiz-adv-x="1403" d="M-14 0l555 1462h329l547 -1462h-334l-110 326h-547l-115 -326h-325zM450 1746q0 69 34 126t91 90.5t125 33.5q52 0 98.5 -19t81 -54t53.5 -80t19 -97q0 -68 -34 -125t-92 -90.5t-126 -33.5t-125 33.5t-91 90.5t-34 125zM510 565h379l-184 537h-5zM571 1746 q0 -60 36 -101.5t93 -41.5q58 0 94.5 41.5t36.5 101.5q0 61 -36.5 102.5t-94.5 41.5q-57 0 -93 -41.5t-36 -102.5z" />
<glyph unicode="&#xc6;" horiz-adv-x="2009" d="M-23 0l699 1462h1241v-270h-680v-313h639v-250h-639v-359h696v-270h-1007v326h-459l-148 -326h-342zM573 565h353v627h-70z" />
<glyph unicode="&#xc7;" horiz-adv-x="1518" d="M78 725q0 162 48.5 303t142 246.5t228.5 164t300 58.5q161 0 298.5 -62t225 -181t106.5 -283h-311q-10 72 -56 130.5t-115.5 92t-147.5 33.5q-137 0 -226.5 -69.5t-130.5 -183t-41 -249.5q0 -130 40.5 -240.5t130.5 -179.5t227 -69q142 0 227 89t104 238h312 q-16 -178 -100 -313.5t-223.5 -209.5t-313.5 -75l-53 -74h4q19 11 69 11q48 0 91.5 -15.5t70.5 -48.5t27 -80q0 -109 -67.5 -156.5t-172.5 -47.5q-81 0 -125.5 8.5t-128.5 36.5l43 98q84 -37 172 -37q82 0 82 70q0 65 -82 65q-42 0 -82 -14l-43 49l99 141 q-195 21 -337 124.5t-217 267.5t-75 362z" />
<glyph unicode="&#xc8;" horiz-adv-x="1327" d="M141 0v1462h1094v-270h-772v-313h708v-250h-708v-359h788v-270h-1110zM301 1884h321l197 -291h-203z" />
<glyph unicode="&#xc9;" horiz-adv-x="1327" d="M141 0v1462h1094v-270h-772v-313h708v-250h-708v-359h788v-270h-1110zM510 1593l196 291h322l-316 -291h-202z" />
<glyph unicode="&#xca;" horiz-adv-x="1327" d="M141 0v1462h1094v-270h-772v-313h708v-250h-708v-359h788v-270h-1110zM305 1593l227 291h266l226 -291h-240l-127 166l-131 -166h-221z" />
<glyph unicode="&#xcb;" horiz-adv-x="1327" d="M141 0v1462h1094v-270h-772v-313h708v-250h-708v-359h788v-270h-1110zM315 1626v239h277v-239h-277zM737 1626v239h276v-239h-276z" />
<glyph unicode="&#xcc;" horiz-adv-x="604" d="M-61 1884h321l197 -291h-203zM141 0v1462h322v-1462h-322z" />
<glyph unicode="&#xcd;" horiz-adv-x="604" d="M141 0v1462h322v-1462h-322zM148 1593l196 291h322l-316 -291h-202z" />
<glyph unicode="&#xce;" horiz-adv-x="604" d="M-57 1593l227 291h266l226 -291h-240l-127 166l-131 -166h-221zM141 0v1462h322v-1462h-322z" />
<glyph unicode="&#xcf;" horiz-adv-x="604" d="M-47 1626v239h277v-239h-277zM141 0v1462h322v-1462h-322zM375 1626v239h276v-239h-276z" />
<glyph unicode="&#xd0;" horiz-adv-x="1518" d="M6 637v237h135v588h631q144 0 265 -44.5t210.5 -135t139 -228.5t49.5 -315q0 -215 -74 -382.5t-224.5 -262t-365.5 -94.5h-631v637h-135zM463 270h287q98 0 180.5 44t133 143t50.5 252q0 117 -21 203.5t-70 150t-131 96.5t-200 33h-229v-318h328v-239h-328v-365z" />
<glyph unicode="&#xd1;" horiz-adv-x="1518" d="M141 0v1462h320l610 -981h4v981h301v-1462h-321l-609 979h-4v-979h-301zM383 1615q27 114 82 182t176 68q33 0 66 -10.5t66 -24.5q86 -36 135 -36q43 0 64.5 20t21.5 51h141q-31 -104 -63 -151q-58 -82 -166 -82q-22 0 -41 2.5t-43.5 8.5t-44 12t-39.5 12q-96 34 -144 34 q-39 0 -56.5 -20t-29.5 -66h-125z" />
<glyph unicode="&#xd2;" horiz-adv-x="1593" d="M78 725q0 162 48.5 303t142 246.5t228.5 164t300 58.5q166 0 301.5 -59t227.5 -162.5t141 -246t49 -304.5q0 -213 -86.5 -386t-249.5 -273.5t-383 -100.5t-383.5 100.5t-249.5 273.5t-86 386zM399 725q0 -130 40.5 -240.5t130.5 -179.5t227 -69t226.5 69t130 179.5 t40.5 240.5q0 136 -41 249.5t-129.5 183t-226.5 69.5q-137 0 -226.5 -69.5t-130.5 -183t-41 -249.5zM434 1884h321l197 -291h-203z" />
<glyph unicode="&#xd3;" horiz-adv-x="1593" d="M78 725q0 162 48.5 303t142 246.5t228.5 164t300 58.5q166 0 301.5 -59t227.5 -162.5t141 -246t49 -304.5q0 -213 -86.5 -386t-249.5 -273.5t-383 -100.5t-383.5 100.5t-249.5 273.5t-86 386zM399 725q0 -130 40.5 -240.5t130.5 -179.5t227 -69t226.5 69t130 179.5 t40.5 240.5q0 136 -41 249.5t-129.5 183t-226.5 69.5q-137 0 -226.5 -69.5t-130.5 -183t-41 -249.5zM643 1593l196 291h322l-316 -291h-202z" />
<glyph unicode="&#xd4;" horiz-adv-x="1593" d="M78 725q0 162 48.5 303t142 246.5t228.5 164t300 58.5q166 0 301.5 -59t227.5 -162.5t141 -246t49 -304.5q0 -213 -86.5 -386t-249.5 -273.5t-383 -100.5t-383.5 100.5t-249.5 273.5t-86 386zM399 725q0 -130 40.5 -240.5t130.5 -179.5t227 -69t226.5 69t130 179.5 t40.5 240.5q0 136 -41 249.5t-129.5 183t-226.5 69.5q-137 0 -226.5 -69.5t-130.5 -183t-41 -249.5zM438 1593l227 291h266l226 -291h-240l-127 166l-131 -166h-221z" />
<glyph unicode="&#xd5;" horiz-adv-x="1593" d="M78 725q0 162 48.5 303t142 246.5t228.5 164t300 58.5q166 0 301.5 -59t227.5 -162.5t141 -246t49 -304.5q0 -213 -86.5 -386t-249.5 -273.5t-383 -100.5t-383.5 100.5t-249.5 273.5t-86 386zM399 725q0 -130 40.5 -240.5t130.5 -179.5t227 -69t226.5 69t130 179.5 t40.5 240.5q0 136 -41 249.5t-129.5 183t-226.5 69.5q-137 0 -226.5 -69.5t-130.5 -183t-41 -249.5zM421 1615q27 114 82 182t176 68q33 0 66 -10.5t66 -24.5q86 -36 135 -36q43 0 64.5 20t21.5 51h141q-31 -104 -63 -151q-58 -82 -166 -82q-22 0 -41 2.5t-43.5 8.5t-44 12 t-39.5 12q-96 34 -144 34q-39 0 -56.5 -20t-29.5 -66h-125z" />
<glyph unicode="&#xd6;" horiz-adv-x="1593" d="M78 725q0 162 48.5 303t142 246.5t228.5 164t300 58.5q166 0 301.5 -59t227.5 -162.5t141 -246t49 -304.5q0 -213 -86.5 -386t-249.5 -273.5t-383 -100.5t-383.5 100.5t-249.5 273.5t-86 386zM399 725q0 -130 40.5 -240.5t130.5 -179.5t227 -69t226.5 69t130 179.5 t40.5 240.5q0 136 -41 249.5t-129.5 183t-226.5 69.5q-137 0 -226.5 -69.5t-130.5 -183t-41 -249.5zM448 1626v239h277v-239h-277zM870 1626v239h276v-239h-276z" />
<glyph unicode="&#xd7;" horiz-adv-x="1229" d="M131 190l330 328l-326 328l156 155l325 -327l328 327l156 -155l-330 -328l330 -328l-156 -155l-328 330l-329 -330z" />
<glyph unicode="&#xd8;" horiz-adv-x="1593" d="M70 20l176 195q-56 68 -92.5 147t-56 170.5t-19.5 192.5q0 162 48.5 303t142 246.5t228.5 164t300 58.5q93 0 177.5 -18.5t155 -54t127.5 -85.5l164 183l103 -90l-172 -191q164 -209 164 -516q0 -213 -86.5 -386t-249.5 -273.5t-383 -100.5q-137 0 -253 41t-204 115 l-170 -189zM399 725q0 -159 58 -276l606 673q-102 105 -266 105q-137 0 -226.5 -69.5t-130.5 -183t-41 -249.5zM535 336q98 -100 262 -100q137 0 226.5 69t130 179.5t40.5 240.5q0 161 -55 279z" />
<glyph unicode="&#xd9;" horiz-adv-x="1518" d="M135 553v909h322v-909q0 -145 62 -231t239 -86q113 0 179.5 33.5t95 103t28.5 180.5v909h321v-909q0 -147 -42 -257.5t-121 -183t-196 -110t-265 -37.5q-299 0 -461 148.5t-162 439.5zM396 1884h321l197 -291h-203z" />
<glyph unicode="&#xda;" horiz-adv-x="1518" d="M135 553v909h322v-909q0 -145 62 -231t239 -86q113 0 179.5 33.5t95 103t28.5 180.5v909h321v-909q0 -147 -42 -257.5t-121 -183t-196 -110t-265 -37.5q-299 0 -461 148.5t-162 439.5zM605 1593l196 291h322l-316 -291h-202z" />
<glyph unicode="&#xdb;" horiz-adv-x="1518" d="M135 553v909h322v-909q0 -145 62 -231t239 -86q113 0 179.5 33.5t95 103t28.5 180.5v909h321v-909q0 -147 -42 -257.5t-121 -183t-196 -110t-265 -37.5q-299 0 -461 148.5t-162 439.5zM400 1593l227 291h266l226 -291h-240l-127 166l-131 -166h-221z" />
<glyph unicode="&#xdc;" horiz-adv-x="1518" d="M135 553v909h322v-909q0 -145 62 -231t239 -86q113 0 179.5 33.5t95 103t28.5 180.5v909h321v-909q0 -147 -42 -257.5t-121 -183t-196 -110t-265 -37.5q-299 0 -461 148.5t-162 439.5zM410 1626v239h277v-239h-277zM832 1626v239h276v-239h-276z" />
<glyph unicode="&#xdd;" horiz-adv-x="1366" d="M-18 1462h362l342 -577l340 577h358l-542 -901v-561h-322v569zM529 1593l196 291h322l-316 -291h-202z" />
<glyph unicode="&#xde;" horiz-adv-x="1366" d="M141 0v1462h322v-198h338q171 0 285.5 -65t167.5 -172t53 -232q0 -91 -28 -175.5t-90.5 -151t-160.5 -104.5t-227 -38h-338v-326h-322zM463 575h250q132 0 207 46t75 174t-75 173.5t-207 45.5h-250v-439z" />
<glyph unicode="&#xdf;" horiz-adv-x="1251" d="M115 0v1006q0 491 481 491q124 0 231.5 -43.5t170.5 -131.5t63 -218q0 -65 -24 -123.5t-67 -101t-100 -60.5v-4q88 -19 148 -72t89.5 -129.5t29.5 -164.5q0 -96 -32.5 -182t-92.5 -152.5t-142.5 -105t-177.5 -38.5q-87 0 -168 13v237q34 -10 84 -10q52 0 94.5 18.5 t76.5 55t50.5 80.5t16.5 94q0 115 -62.5 182.5t-187.5 67.5q-22 0 -72 -4v192q34 -4 45 -4q90 0 152.5 46t62.5 136q0 182 -196 182q-86 0 -134 -53.5t-48 -146.5v-1057h-291z" />
<glyph unicode="&#xe0;" horiz-adv-x="1176" d="M66 289q0 163 97 231t263 90q38 6 120.5 16t126.5 22t70.5 36t26.5 66q0 86 -49 114.5t-139 28.5q-87 0 -136.5 -38t-56.5 -122h-291q12 189 152.5 271.5t345.5 82.5q197 0 331 -65t134 -236v-550q0 -72 8.5 -137.5t28.5 -98.5h-295q-19 61 -21 102q-65 -68 -158.5 -99.5 t-197.5 -31.5q-159 0 -259.5 81t-100.5 237zM226 1481h321l197 -291h-203zM356 301q0 -135 179 -135q146 0 190.5 77.5t44.5 166.5v108q-23 -20 -58.5 -30t-96.5 -18.5t-87 -12.5q-80 -16 -126 -50t-46 -106z" />
<glyph unicode="&#xe1;" horiz-adv-x="1176" d="M66 289q0 163 97 231t263 90q38 6 120.5 16t126.5 22t70.5 36t26.5 66q0 86 -49 114.5t-139 28.5q-87 0 -136.5 -38t-56.5 -122h-291q12 189 152.5 271.5t345.5 82.5q197 0 331 -65t134 -236v-550q0 -72 8.5 -137.5t28.5 -98.5h-295q-19 61 -21 102q-65 -68 -158.5 -99.5 t-197.5 -31.5q-159 0 -259.5 81t-100.5 237zM356 301q0 -135 179 -135q146 0 190.5 77.5t44.5 166.5v108q-23 -20 -58.5 -30t-96.5 -18.5t-87 -12.5q-80 -16 -126 -50t-46 -106zM435 1190l196 291h322l-316 -291h-202z" />
<glyph unicode="&#xe2;" horiz-adv-x="1176" d="M66 289q0 163 97 231t263 90q38 6 120.5 16t126.5 22t70.5 36t26.5 66q0 86 -49 114.5t-139 28.5q-87 0 -136.5 -38t-56.5 -122h-291q12 189 152.5 271.5t345.5 82.5q197 0 331 -65t134 -236v-550q0 -72 8.5 -137.5t28.5 -98.5h-295q-19 61 -21 102q-65 -68 -158.5 -99.5 t-197.5 -31.5q-159 0 -259.5 81t-100.5 237zM230 1190l227 291h266l226 -291h-240l-127 166l-131 -166h-221zM356 301q0 -135 179 -135q146 0 190.5 77.5t44.5 166.5v108q-23 -20 -58.5 -30t-96.5 -18.5t-87 -12.5q-80 -16 -126 -50t-46 -106z" />
<glyph unicode="&#xe3;" horiz-adv-x="1176" d="M66 289q0 163 97 231t263 90q38 6 120.5 16t126.5 22t70.5 36t26.5 66q0 86 -49 114.5t-139 28.5q-87 0 -136.5 -38t-56.5 -122h-291q12 189 152.5 271.5t345.5 82.5q197 0 331 -65t134 -236v-550q0 -72 8.5 -137.5t28.5 -98.5h-295q-19 61 -21 102q-65 -68 -158.5 -99.5 t-197.5 -31.5q-159 0 -259.5 81t-100.5 237zM213 1212q27 114 82 182t176 68q33 0 66 -10.5t66 -24.5q86 -36 135 -36q43 0 64.5 20t21.5 51h141q-31 -104 -63 -151q-58 -82 -166 -82q-22 0 -41 2.5t-43.5 8.5t-44 12t-39.5 12q-96 34 -144 34q-39 0 -56.5 -20t-29.5 -66 h-125zM356 301q0 -135 179 -135q146 0 190.5 77.5t44.5 166.5v108q-23 -20 -58.5 -30t-96.5 -18.5t-87 -12.5q-80 -16 -126 -50t-46 -106z" />
<glyph unicode="&#xe4;" horiz-adv-x="1176" d="M66 289q0 163 97 231t263 90q38 6 120.5 16t126.5 22t70.5 36t26.5 66q0 86 -49 114.5t-139 28.5q-87 0 -136.5 -38t-56.5 -122h-291q12 189 152.5 271.5t345.5 82.5q197 0 331 -65t134 -236v-550q0 -72 8.5 -137.5t28.5 -98.5h-295q-19 61 -21 102q-65 -68 -158.5 -99.5 t-197.5 -31.5q-159 0 -259.5 81t-100.5 237zM240 1223v239h277v-239h-277zM356 301q0 -135 179 -135q146 0 190.5 77.5t44.5 166.5v108q-23 -20 -58.5 -30t-96.5 -18.5t-87 -12.5q-80 -16 -126 -50t-46 -106zM662 1223v239h276v-239h-276z" />
<glyph unicode="&#xe5;" horiz-adv-x="1176" d="M66 289q0 163 97 231t263 90q38 6 120.5 16t126.5 22t70.5 36t26.5 66q0 86 -49 114.5t-139 28.5q-87 0 -136.5 -38t-56.5 -122h-291q12 189 152.5 271.5t345.5 82.5q197 0 331 -65t134 -236v-550q0 -72 8.5 -137.5t28.5 -98.5h-295q-19 61 -21 102q-65 -68 -158.5 -99.5 t-197.5 -31.5q-159 0 -259.5 81t-100.5 237zM338 1343q0 69 34 126t91 90.5t125 33.5q52 0 98.5 -19t81 -54t53.5 -80t19 -97q0 -68 -34 -125t-92 -90.5t-126 -33.5t-125 33.5t-91 90.5t-34 125zM356 301q0 -135 179 -135q146 0 190.5 77.5t44.5 166.5v108 q-23 -20 -58.5 -30t-96.5 -18.5t-87 -12.5q-80 -16 -126 -50t-46 -106zM459 1343q0 -60 36 -101.5t93 -41.5q58 0 94.5 41.5t36.5 101.5q0 61 -36.5 102.5t-94.5 41.5q-57 0 -93 -41.5t-36 -102.5z" />
<glyph unicode="&#xe6;" horiz-adv-x="1858" d="M78 287q0 163 95 231t259 92q183 27 234 36.5t86.5 34t35.5 77.5q0 135 -188 135q-198 0 -203 -164h-291q8 186 150 272t350 86q108 0 204.5 -34t145.5 -109q63 74 147.5 108.5t207.5 34.5q127 0 221.5 -50t153 -137t85.5 -199t27 -242h-756q0 -113 69 -203t183 -90 q183 0 211 166h283q-28 -110 -99.5 -192t-172.5 -125.5t-216 -43.5q-122 0 -226 44t-169 137q-47 -61 -117 -102t-152 -60t-163 -19q-167 0 -281 77t-114 239zM369 303q0 -73 52 -105t128 -32q92 0 165.5 55.5t73.5 163.5v131q-23 -19 -63.5 -31t-88.5 -19.5t-97 -14.5 q-77 -14 -123.5 -46t-46.5 -102zM1042 643h465q0 103 -61.5 176.5t-165.5 73.5q-73 0 -126.5 -34.5t-81.5 -92t-30 -123.5z" />
<glyph unicode="&#xe7;" horiz-adv-x="1176" d="M78 514q0 165 63.5 295.5t186.5 204t290 73.5q131 0 240.5 -45t179 -135.5t78.5 -220.5h-285q-13 89 -68.5 135.5t-146.5 46.5q-128 0 -187.5 -103t-59.5 -241q0 -81 24 -158.5t78 -126.5t139 -49q98 0 158 58.5t74 157.5h280q-18 -135 -81.5 -230.5t-167 -146.5 t-236.5 -56l-57 -82h4q19 11 69 11q48 0 91.5 -15.5t70.5 -48.5t27 -80q0 -109 -67.5 -156.5t-172.5 -47.5q-81 0 -125.5 8.5t-128.5 36.5l43 98q84 -37 172 -37q82 0 82 70q0 65 -82 65q-42 0 -82 -14l-43 49l103 147q-102 12 -187.5 55t-147.5 115t-95 166.5t-33 200.5z " />
<glyph unicode="&#xe8;" horiz-adv-x="1176" d="M59 528q0 116 39 219t112 180t173 118.5t217 41.5q125 0 222 -45.5t162.5 -125.5t98.5 -185.5t33 -220.5q0 -35 -2 -51h-764q12 -269 260 -269q55 0 104.5 20t83 53t42.5 65h256q-60 -183 -185.5 -270t-310.5 -87q-121 0 -222.5 40.5t-173 116t-108.5 177t-37 223.5z M226 1481h321l197 -291h-203zM350 643h473q-20 115 -73.5 170t-157.5 55q-85 0 -138.5 -36.5t-77.5 -89t-26 -99.5z" />
<glyph unicode="&#xe9;" horiz-adv-x="1176" d="M59 528q0 116 39 219t112 180t173 118.5t217 41.5q125 0 222 -45.5t162.5 -125.5t98.5 -185.5t33 -220.5q0 -35 -2 -51h-764q12 -269 260 -269q55 0 104.5 20t83 53t42.5 65h256q-60 -183 -185.5 -270t-310.5 -87q-121 0 -222.5 40.5t-173 116t-108.5 177t-37 223.5z M350 643h473q-20 115 -73.5 170t-157.5 55q-85 0 -138.5 -36.5t-77.5 -89t-26 -99.5zM435 1190l196 291h322l-316 -291h-202z" />
<glyph unicode="&#xea;" horiz-adv-x="1176" d="M59 528q0 116 39 219t112 180t173 118.5t217 41.5q125 0 222 -45.5t162.5 -125.5t98.5 -185.5t33 -220.5q0 -35 -2 -51h-764q12 -269 260 -269q55 0 104.5 20t83 53t42.5 65h256q-60 -183 -185.5 -270t-310.5 -87q-121 0 -222.5 40.5t-173 116t-108.5 177t-37 223.5z M230 1190l227 291h266l226 -291h-240l-127 166l-131 -166h-221zM350 643h473q-20 115 -73.5 170t-157.5 55q-85 0 -138.5 -36.5t-77.5 -89t-26 -99.5z" />
<glyph unicode="&#xeb;" horiz-adv-x="1176" d="M59 528q0 116 39 219t112 180t173 118.5t217 41.5q125 0 222 -45.5t162.5 -125.5t98.5 -185.5t33 -220.5q0 -35 -2 -51h-764q12 -269 260 -269q55 0 104.5 20t83 53t42.5 65h256q-60 -183 -185.5 -270t-310.5 -87q-121 0 -222.5 40.5t-173 116t-108.5 177t-37 223.5z M240 1223v239h277v-239h-277zM350 643h473q-20 115 -73.5 170t-157.5 55q-85 0 -138.5 -36.5t-77.5 -89t-26 -99.5zM662 1223v239h276v-239h-276z" />
<glyph unicode="&#xec;" horiz-adv-x="528" d="M-98 1481h321l197 -291h-203zM119 0v1059h291v-1059h-291z" />
<glyph unicode="&#xed;" horiz-adv-x="528" d="M111 1190l196 291h322l-316 -291h-202zM119 0v1059h291v-1059h-291z" />
<glyph unicode="&#xee;" horiz-adv-x="528" d="M-94 1190l227 291h266l226 -291h-240l-127 166l-131 -166h-221zM119 0v1059h291v-1059h-291z" />
<glyph unicode="&#xef;" horiz-adv-x="528" d="M-84 1223v239h277v-239h-277zM119 0v1059h291v-1059h-291zM338 1223v239h276v-239h-276z" />
<glyph unicode="&#xf0;" horiz-adv-x="1251" d="M78 506q0 132 51 254t158.5 199t261.5 77q69 0 139.5 -17.5t136.5 -64.5h4q-52 123 -208 260l-230 -114l-119 114l220 111q-95 67 -173 102l189 142q108 -60 203 -135l252 127l106 -121l-233 -117q166 -158 252 -342.5t86 -421.5q0 -127 -38 -233t-111 -186.5 t-175 -124.5t-225 -44t-224.5 39.5t-174 112.5t-110.5 171t-38 212zM369 528q0 -143 60.5 -240.5t195.5 -97.5q137 0 197.5 97t60.5 241q0 80 -27.5 152.5t-86 117t-146.5 44.5q-91 0 -147.5 -45t-81.5 -117t-25 -152z" />
<glyph unicode="&#xf1;" horiz-adv-x="1214" d="M111 0v1059h276v-148h6q54 87 140.5 131.5t183.5 44.5q149 0 234.5 -52.5t119 -149.5t33.5 -234v-651h-291v598q0 133 -43 196.5t-143 63.5q-79 0 -129 -31t-73.5 -97t-23.5 -175v-555h-290zM231 1212q27 114 82 182t176 68q33 0 66 -10.5t66 -24.5q86 -36 135 -36 q43 0 64.5 20t21.5 51h141q-31 -104 -63 -151q-58 -82 -166 -82q-22 0 -41 2.5t-43.5 8.5t-44 12t-39.5 12q-96 34 -144 34q-39 0 -56.5 -20t-29.5 -66h-125z" />
<glyph unicode="&#xf2;" horiz-adv-x="1251" d="M78 528q0 124 38 228t110.5 178t174 113.5t224.5 39.5q124 0 226 -39.5t174 -113t110.5 -176t38.5 -230.5q0 -126 -38 -227t-111.5 -176.5t-174.5 -114.5t-225 -39q-165 0 -288.5 69t-191 196t-67.5 292zM262 1481h321l197 -291h-203zM369 528q0 -143 60.5 -240.5 t195.5 -97.5q137 0 197.5 97t60.5 241q0 146 -60 243t-198 97q-136 0 -196 -97.5t-60 -242.5z" />
<glyph unicode="&#xf3;" horiz-adv-x="1251" d="M78 528q0 124 38 228t110.5 178t174 113.5t224.5 39.5q124 0 226 -39.5t174 -113t110.5 -176t38.5 -230.5q0 -126 -38 -227t-111.5 -176.5t-174.5 -114.5t-225 -39q-165 0 -288.5 69t-191 196t-67.5 292zM369 528q0 -143 60.5 -240.5t195.5 -97.5q137 0 197.5 97 t60.5 241q0 146 -60 243t-198 97q-136 0 -196 -97.5t-60 -242.5zM471 1190l196 291h322l-316 -291h-202z" />
<glyph unicode="&#xf4;" horiz-adv-x="1251" d="M78 528q0 124 38 228t110.5 178t174 113.5t224.5 39.5q124 0 226 -39.5t174 -113t110.5 -176t38.5 -230.5q0 -126 -38 -227t-111.5 -176.5t-174.5 -114.5t-225 -39q-165 0 -288.5 69t-191 196t-67.5 292zM266 1190l227 291h266l226 -291h-240l-127 166l-131 -166h-221z M369 528q0 -143 60.5 -240.5t195.5 -97.5q137 0 197.5 97t60.5 241q0 146 -60 243t-198 97q-136 0 -196 -97.5t-60 -242.5z" />
<glyph unicode="&#xf5;" horiz-adv-x="1251" d="M78 528q0 124 38 228t110.5 178t174 113.5t224.5 39.5q124 0 226 -39.5t174 -113t110.5 -176t38.5 -230.5q0 -126 -38 -227t-111.5 -176.5t-174.5 -114.5t-225 -39q-165 0 -288.5 69t-191 196t-67.5 292zM249 1212q27 114 82 182t176 68q33 0 66 -10.5t66 -24.5 q86 -36 135 -36q43 0 64.5 20t21.5 51h141q-31 -104 -63 -151q-58 -82 -166 -82q-22 0 -41 2.5t-43.5 8.5t-44 12t-39.5 12q-96 34 -144 34q-39 0 -56.5 -20t-29.5 -66h-125zM369 528q0 -143 60.5 -240.5t195.5 -97.5q137 0 197.5 97t60.5 241q0 146 -60 243t-198 97 q-136 0 -196 -97.5t-60 -242.5z" />
<glyph unicode="&#xf6;" horiz-adv-x="1251" d="M78 528q0 124 38 228t110.5 178t174 113.5t224.5 39.5q124 0 226 -39.5t174 -113t110.5 -176t38.5 -230.5q0 -126 -38 -227t-111.5 -176.5t-174.5 -114.5t-225 -39q-165 0 -288.5 69t-191 196t-67.5 292zM276 1223v239h277v-239h-277zM369 528q0 -143 60.5 -240.5 t195.5 -97.5q137 0 197.5 97t60.5 241q0 146 -60 243t-198 97q-136 0 -196 -97.5t-60 -242.5zM698 1223v239h276v-239h-276z" />
<glyph unicode="&#xf7;" horiz-adv-x="1229" d="M98 408v219h1035v-219h-1035zM442 92q0 47 24 86.5t63.5 62.5t86.5 23q72 0 122 -51t50 -121q0 -65 -51.5 -119.5t-118.5 -54.5q-72 0 -124 52t-52 122zM442 942q0 73 51.5 123.5t122.5 50.5t121.5 -51.5t50.5 -122.5q0 -65 -51.5 -118.5t-118.5 -53.5q-71 0 -123.5 50.5 t-52.5 121.5z" />
<glyph unicode="&#xf8;" horiz-adv-x="1251" d="M78 528q0 124 38 228t110.5 178t174 113.5t224.5 39.5q100 0 181.5 -24t151.5 -74l109 125l76 -65l-111 -125q45 -48 76.5 -109t48.5 -134.5t17 -152.5q0 -126 -38 -227t-111.5 -176.5t-174.5 -114.5t-225 -39q-199 0 -338 103l-121 -137l-76 65l123 139 q-135 149 -135 387zM369 528q0 -106 30 -176l396 451q-62 65 -170 65q-136 0 -196 -97.5t-60 -242.5zM451 260q62 -70 174 -70q137 0 197.5 97t60.5 241q0 103 -33 187z" />
<glyph unicode="&#xf9;" horiz-adv-x="1214" d="M111 408v651h290v-598q0 -133 44 -196.5t143 -63.5q119 0 172 71.5t53 231.5v555h291v-1059h-277v147h-6q-36 -58 -87.5 -97.5t-111.5 -59t-124 -19.5q-149 0 -234 52t-119 147t-34 238zM244 1481h321l197 -291h-203z" />
<glyph unicode="&#xfa;" horiz-adv-x="1214" d="M111 408v651h290v-598q0 -133 44 -196.5t143 -63.5q119 0 172 71.5t53 231.5v555h291v-1059h-277v147h-6q-36 -58 -87.5 -97.5t-111.5 -59t-124 -19.5q-149 0 -234 52t-119 147t-34 238zM453 1190l196 291h322l-316 -291h-202z" />
<glyph unicode="&#xfb;" horiz-adv-x="1214" d="M111 408v651h290v-598q0 -133 44 -196.5t143 -63.5q119 0 172 71.5t53 231.5v555h291v-1059h-277v147h-6q-36 -58 -87.5 -97.5t-111.5 -59t-124 -19.5q-149 0 -234 52t-119 147t-34 238zM248 1190l227 291h266l226 -291h-240l-127 166l-131 -166h-221z" />
<glyph unicode="&#xfc;" horiz-adv-x="1214" d="M111 408v651h290v-598q0 -133 44 -196.5t143 -63.5q119 0 172 71.5t53 231.5v555h291v-1059h-277v147h-6q-36 -58 -87.5 -97.5t-111.5 -59t-124 -19.5q-149 0 -234 52t-119 147t-34 238zM258 1223v239h277v-239h-277zM680 1223v239h276v-239h-276z" />
<glyph unicode="&#xfd;" horiz-adv-x="1063" d="M-12 1059h311l240 -725h4l231 725h301l-442 -1192q-48 -128 -132 -184t-233 -56q-84 0 -178 11v239q138 -10 170 -10q54 6 83.5 43t29.5 90q0 36 -13 66zM377 1190l196 291h322l-316 -291h-202z" />
<glyph unicode="&#xfe;" horiz-adv-x="1251" d="M111 -373v1835h290v-538h5q51 82 130.5 122.5t170.5 40.5q157 0 266 -77t162 -207.5t53 -284.5q0 -144 -52.5 -269t-158.5 -201.5t-254 -76.5q-96 0 -180.5 41.5t-136.5 118.5h-5v-504h-290zM391 526q0 -92 25 -167.5t82.5 -122t146.5 -46.5q92 0 147.5 46t80 122.5 t24.5 167.5t-26 168t-82.5 125.5t-145.5 48.5q-132 0 -192 -98t-60 -244z" />
<glyph unicode="&#xff;" horiz-adv-x="1063" d="M-12 1059h311l240 -725h4l231 725h301l-442 -1192q-48 -128 -132 -184t-233 -56q-84 0 -178 11v239q138 -10 170 -10q54 6 83.5 43t29.5 90q0 36 -13 66zM182 1223v239h277v-239h-277zM604 1223v239h276v-239h-276z" />
<glyph unicode="&#x152;" horiz-adv-x="2238" d="M78 723q0 154 46 292t136 247.5t218 172t286 62.5q105 0 197.5 -33.5t148.5 -105.5h4v104h1024v-270h-725v-313h664v-250h-664v-359h739v-270h-1038v111h-4q-64 -70 -159.5 -108t-192.5 -38q-209 0 -363.5 103t-235.5 275.5t-81 379.5zM399 727q0 -202 95.5 -346.5 t285.5 -144.5q146 0 234 92t88 241v349q0 90 -40.5 160.5t-113 109.5t-162.5 39q-135 0 -222 -71.5t-126 -184t-39 -244.5z" />
<glyph unicode="&#x153;" horiz-adv-x="1896" d="M78 535q0 116 37 217t105.5 176t166 117t211.5 42q115 0 213 -40t152 -127q34 51 92 89t129.5 58t132.5 20q266 0 393 -176t127 -452h-756q0 -77 27.5 -137.5t85 -96t139.5 -35.5q154 0 213 146h283q-26 -87 -72 -153.5t-111.5 -114.5t-145 -72.5t-167.5 -24.5 q-121 0 -223 44t-160 137q-51 -91 -154.5 -136t-220.5 -45q-158 0 -270.5 76t-169.5 205.5t-57 282.5zM369 524q0 -131 53.5 -232.5t171.5 -101.5q90 0 142 50.5t71.5 125.5t19.5 166q0 336 -227 336q-123 0 -177 -100.5t-54 -243.5zM1081 643h465q-3 68 -30 118.5t-79 78.5 t-126 28q-106 0 -165.5 -63t-64.5 -162z" />
<glyph unicode="&#x178;" horiz-adv-x="1366" d="M-18 1462h362l342 -577l340 577h358l-542 -901v-561h-322v569zM334 1626v239h277v-239h-277zM756 1626v239h276v-239h-276z" />
<glyph unicode="&#x2c6;" horiz-adv-x="530" d="M-94 1190l227 291h266l226 -291h-240l-127 166l-131 -166h-221z" />
<glyph unicode="&#x2dc;" horiz-adv-x="530" d="M-111 1212q27 114 82 182t176 68q33 0 66 -10.5t66 -24.5q86 -36 135 -36q43 0 64.5 20t21.5 51h141q-31 -104 -63 -151q-58 -82 -166 -82q-22 0 -41 2.5t-43.5 8.5t-44 12t-39.5 12q-96 34 -144 34q-39 0 -56.5 -20t-29.5 -66h-125z" />
<glyph unicode="&#x2000;" horiz-adv-x="998" />
<glyph unicode="&#x2001;" horiz-adv-x="1996" />
<glyph unicode="&#x2002;" horiz-adv-x="998" />
<glyph unicode="&#x2003;" horiz-adv-x="1996" />
<glyph unicode="&#x2004;" horiz-adv-x="665" />
<glyph unicode="&#x2005;" horiz-adv-x="499" />
<glyph unicode="&#x2006;" horiz-adv-x="332" />
<glyph unicode="&#x2007;" horiz-adv-x="332" />
<glyph unicode="&#x2008;" horiz-adv-x="249" />
<glyph unicode="&#x2009;" horiz-adv-x="399" />
<glyph unicode="&#x200a;" horiz-adv-x="110" />
<glyph unicode="&#x2010;" horiz-adv-x="834" d="M109 434v250h616v-250h-616z" />
<glyph unicode="&#x2011;" horiz-adv-x="834" d="M109 434v250h616v-250h-616z" />
<glyph unicode="&#x2012;" horiz-adv-x="834" d="M109 434v250h616v-250h-616z" />
<glyph unicode="&#x2013;" horiz-adv-x="1024" d="M0 434v250h1024v-250h-1024z" />
<glyph unicode="&#x2014;" horiz-adv-x="2048" d="M266 434v250h1516v-250h-1516z" />
<glyph unicode="&#x2018;" horiz-adv-x="569" d="M139 805v313q0 90 38 166t104.5 122t148.5 56v-135q-74 -24 -104.5 -75.5t-30.5 -131.5h135v-315h-291z" />
<glyph unicode="&#x2019;" horiz-adv-x="569" d="M139 805v135q75 25 105 75.5t30 131.5h-135v315h291v-313q0 -91 -38 -166t-104.5 -121.5t-148.5 -56.5z" />
<glyph unicode="&#x201a;" horiz-adv-x="569" d="M139 0v315h291v-313q0 -138 -82 -232t-209 -112v135q75 25 105 75.5t30 131.5h-135z" />
<glyph unicode="&#x201c;" horiz-adv-x="948" d="M111 805v313q0 139 82 233t208 111v-135q-74 -24 -104.5 -75.5t-30.5 -131.5h135v-315h-290zM547 805v313q0 90 38 166t104.5 122t148.5 56v-135q-74 -24 -105 -75t-31 -132h136v-315h-291z" />
<glyph unicode="&#x201d;" horiz-adv-x="948" d="M111 805v135q76 26 105.5 76.5t29.5 130.5h-135v315h290v-313q0 -67 -21.5 -127t-61.5 -106.5t-91.5 -74t-115.5 -36.5zM547 805v135q76 26 105.5 76.5t29.5 130.5h-135v315h291v-313q0 -91 -38 -166t-104.5 -121.5t-148.5 -56.5z" />
<glyph unicode="&#x201e;" horiz-adv-x="948" d="M111 0v315h290v-313q0 -138 -82 -232t-208 -112v135q76 26 105.5 76.5t29.5 130.5h-135zM547 0v315h291v-313q0 -138 -82 -232t-209 -112v135q76 26 105.5 76.5t29.5 130.5h-135z" />
<glyph unicode="&#x2022;" horiz-adv-x="1026" d="M147 731q0 99 48.5 183.5t133 133t183.5 48.5q75 0 142 -27.5t118.5 -79t79 -117t27.5 -141.5t-28 -142t-79 -117t-117.5 -79t-142.5 -28q-99 0 -183 49t-133 133.5t-49 183.5z" />
<glyph unicode="&#x2026;" horiz-adv-x="2048" d="M180 0v315h322v-315h-322zM862 0v315h322v-315h-322zM1544 0v315h322v-315h-322z" />
<glyph unicode="&#x202f;" horiz-adv-x="399" />
<glyph unicode="&#x2039;" horiz-adv-x="494" d="M86 420v276l322 252v-246l-185 -145l185 -147v-246z" />
<glyph unicode="&#x203a;" horiz-adv-x="494" d="M86 164v246l184 147l-184 145v246l322 -252v-276z" />
<glyph unicode="&#x205f;" horiz-adv-x="499" />
<glyph unicode="&#x2122;" horiz-adv-x="2048" d="M127 1298v164h688v-164h-240v-680h-208v680h-240zM924 618v844h278l211 -555l211 555h277v-844h-197v599h-4l-217 -599h-142l-217 599h-4v-599h-196z" />
<glyph unicode="&#xe000;" horiz-adv-x="1060" d="M0 0v1060h1060v-1060h-1060z" />
</font>
</defs>
</svg>
